<?xml version="1.0" encoding="UTF-8"?>
<svg viewBox="0 0 428.3125 559.28125" xmlns="http://www.w3.org/2000/svg" xmlns:xlink="http://www.w3.org/1999/xlink">
 <defs>
  <linearGradient id="a">
   <stop stop-color="#333" offset="0"/>
   <stop stop-color="#4a4a4a" offset=".25"/>
   <stop stop-color="#909090" offset=".5"/>
   <stop stop-color="#4a4a4a" offset=".75"/>
   <stop stop-color="#333" offset="1"/>
  </linearGradient>
  <linearGradient id="d" x1="515.82" x2="526.09" gradientUnits="userSpaceOnUse" xlink:href="#a"/>
  <linearGradient id="c" x1="295.07" x2="310.41" gradientUnits="userSpaceOnUse" xlink:href="#a"/>
  <linearGradient id="b" x1="335.8" x2="351.14" gradientUnits="userSpaceOnUse" xlink:href="#a"/>
 </defs>
 <g transform="translate(-286.38 -109.41)" enable-background="new" stroke="#000">
  <path d="m340.5 266 184-4.5-1.5 352.5-179.5 29z" fill="#d3d7da"/>
  <path d="m516.61 619.45-0.25613 14.343c3.7484 2.4268 6.915 1.3636 9.989-0.25613v-15.368" fill="url(#d)"/>
  <path d="m295.57 587.83 0.51226 12.294c4.6103 1.8625 9.2206 2.1376 13.831-0.76838l-0.51225-11.013" fill="url(#c)"/>
  <path d="m336.11 642.57 0.69337 15.554c4.6103 1.8625 9.2206 2.1376 13.831-0.76838l0.3933-11.738" fill="url(#b)"/>
  <path d="m346.82 639.41 180.39-30.245 0.36222 9.961-180.75 29.702" fill="#a6a4a7"/>
  <path d="m348,278.25 5.25-5.25 157.5-3.5 5.75,4-.5,321-5.25,9-154.75,24.75-5.25-3.5z" fill="#f9f9f9"/>
  <path d="m343.25,248.75 190-4.5 .25,21.5-190,5.25" fill="#a6a4a7"/>
  <path d="m347.25,639.5 173.25-28.75-.25,9.25-173.5,29z" fill="none" opacity=".2"/>
  <path d="m334.99 126.12-46.139 7.2478 5.3033 456.44 45.962 60.281" fill="#656064"/>
  <path d="m497.37 325.7-48.624-11.953-100.25 3.75 0.0508 15.528" fill="#ccc"/>
  <path d="m497.7 391.85-48.945-15.297-99.892 4.4598 0.12034 21.453" fill="#ccc"/>
  <path d="m448.48 271.26 0.35355 233.44" fill="none"/>
  <path d="m497.44 457.28-48.692-19.534-99.25 8.8021 0.24276 26.038" fill="#ccc"/>
  <path d="m349.98 472.41 147.2-15.034 0.0625 2.3125-147.25 16.058" fill="#e6e6e6"/>
  <path d="m497.44 521.28-48.692-29.622-98.947 10.149 0.27301 36.581" fill="#ccc"/>
  <path d="m521.3 257.53-1e-5 366.23 188.29 44.289 4.5983-403.68z" fill="#847e83"/>
  <path d="m349.34 402.42 148-10.501v3.3289l-147.94 10.532" fill="#e6e6e6"/>
  <path d="m350.44 538.68 146.74-17.304 0.0625 4.0066-146.73 18.357" fill="#e6e6e6"/>
  <path d="m340 650 7-1-4.75-522.75h-7.25z" fill="#7e7b7e"/>
  <path d="m492.86 526.36 3.0804 2.0536-0.96691 52.708-6.2206 8.8988-135.19 20.536-2.7381-2.0536-0.68453-64.345" fill="#b7c4c8"/>
  <path d="m525.17 261.95 178.61 6.7764-3.3882 394.73-176.19-41.385z" fill="#b3b3b3"/>
  <path d="m538.38 273.09 155.04 6.503-4.7917 375.12-160.52-37.991-0.34226-344.03z" fill="#ccc"/>
  <path d="m540.12 282.15 142.61 5.2072-3.3882 360.12-142.55-33.156z" fill="#f2f2f2"/>
  <path d="m522.14 401.05 16.753-2.7809 0.0339 4.6801" fill="#97aab0"/>
  <path d="m522.51 401.1v14.763l60.02 6.7764 14.521-2.1781 0.48403-15.247-13.795 2.9042z" fill="#b7c4c8"/>
  <path d="m521.73 453.28 16.686-4.7479-0.0339 7.461" fill="#97aab0"/>
  <path d="m522.27 453.62 60.02 8.9546 13.311-3.1462-0.24202 14.763-12.343 4.1143-60.746-9.4386z" fill="#b7c4c8"/>
  <path d="m520.06 580.25 16.963-6.6024 0.0605 10.523" fill="#97aab0"/>
  <path d="m520.33 580.44 142.79 32.188 16.06-4.325-0.39187 35.757-17.605 5.112-141.1-34.124z" fill="#b7c4c8"/>
  <path d="m597.12 332.33-1.8653 167.35 9.4959 1.6279 1.3566-168.21" fill="#e6e6e6"/>
  <path d="m606.11 332.55-1.0852 168.76 11.666-4.0697 1.0852-158.17 3.527-1.6279 59.96 4.341 0.16957-5.2566" fill="#b3b3b3"/>
  <path d="m522.37 308.57 17.533-2.6114-0.10174 3.8662" fill="#97aab0"/>
  <path d="m600.34 409.26 16.974-2.6792-0.0339 4.8158" fill="#97aab0"/>
  <path d="m599.12 464.88 17.738-4.4952 4.6e-4 7.182" fill="#97aab0"/>
  <path d="m522.75 308.65v17.425l144.48 11.375 14.763-0.96807 0.48403-18.877-15.005 1.6941z" fill="#b7c4c8"/>
  <path d="m600.44 409.33-0.24202 15.247 65.102 8.7126 15.777-3.6302 0.19626-14.763-14.279 2.6622z" fill="#b7c4c8"/>
  <path d="m599.47 465 0.0201 15.208 65.082 10.445 15.439-3.6782 0.0502-15.925-14.763 3.8722z" fill="#b7c4c8"/>
  <path d="m338.31 110.39-0.18111 11.41 196.5 4.3466 0.18111-11.41z" fill="#a5a0a4"/>
  <path d="m337.95 110.03-51.073 10.685 0.0906 12.949 47.879-7.6675-0.051-4.0997 3.2447-5e-3z" fill="#656064"/>
  <path d="m534.61 126.31-14.674 4.4447-185.18-4.6103-0.12806-4.3542" fill="#333"/>
  <path d="m534.54 127.94 0.25613 120.38-196.19 5.1226-1.2806-129.34z" fill="#656064"/>
  <path d="m350.81 613.33 139.64-21.009 6.8822-10.867 1.2678-311.51" fill="none"/>
  <path d="m348.92 332.94 148.08-7.186v3.5l-148.08 6.5" fill="#e6e6e6"/>
  <path d="m345.75,237 .25,11.75 50.25-1.25v-11.5z" fill="#808080"/>
 </g>
</svg>
